<?xml version="1.0" encoding="utf-8"?>
<!-- Uploaded to: SVG Repo, www.svgrepo.com, Generator: SVG Repo Mixer Tools -->
<svg width="800px" height="800px" viewBox="0 0 1024 1024" fill="#000000" class="icon"  version="1.1" xmlns="http://www.w3.org/2000/svg"><path d="M935.974 815.98h-166.006c-11.264 0-25.17-6.514-32.386-15.17l-59.498-71.402c-8.154-9.764-8.154-25.076 0-34.842l59.498-71.402c7.216-8.654 21.124-15.17 32.386-15.17h166.006c13.234 0 23.998 10.766 23.998 23.998v159.99c0 13.234-10.764 23.998-23.998 23.998z m-166.006-191.988c-6.42 0-15.982 4.484-20.108 9.422l-59.496 71.402c-3.188 3.812-3.188 10.532 0 14.344l59.496 71.4c4.124 4.938 13.688 9.422 20.108 9.422h166.006c4.406 0 8-3.594 8-8v-159.99c0-4.406-3.594-8-8-8h-166.006z" fill="" /><path d="M807.982 767.984c-30.874 0-55.996-25.124-55.996-55.996s25.124-55.996 55.996-55.996 55.998 25.124 55.998 55.996-25.124 55.996-55.998 55.996z m0-95.994c-22.06 0-39.998 17.936-39.998 39.998 0 22.06 17.938 39.996 39.998 39.996s39.998-17.936 39.998-39.996c0-22.062-17.938-39.998-39.998-39.998z" fill="" /><path d="M807.982 735.986c-13.232 0-23.998-10.766-23.998-23.998 0-13.234 10.766-24 23.998-24 13.234 0 23.998 10.766 23.998 24 0 13.232-10.764 23.998-23.998 23.998z m0-31.998c-4.404 0-7.998 3.594-7.998 8s3.594 8 7.998 8c4.406 0 8-3.594 8-8s-3.594-8-8-8zM312.49 304.012c-4.414 0-8.078-3.578-8.078-8 0-4.422 3.5-8 7.922-8h0.156a7.994 7.994 0 0 1 7.998 8c0 4.422-3.578 8-7.998 8zM312.49 272.014c-4.414 0-8.078-3.578-8.078-8 0-4.422 3.5-8 7.922-8h0.156a7.994 7.994 0 0 1 7.998 8c0 4.422-3.578 8-7.998 8zM312.49 240.016c-4.414 0-8.078-3.578-8.078-8 0-4.422 3.5-8 7.922-8h0.156a7.994 7.994 0 0 1 7.998 8c0 4.422-3.578 8-7.998 8zM312.49 208.018c-4.414 0-8.078-3.578-8.078-8 0-4.422 3.5-8 7.922-8h0.156a7.994 7.994 0 0 1 7.998 8c0 4.422-3.578 8-7.998 8zM312.49 176.02c-4.414 0-8.078-3.578-8.078-8 0-4.422 3.5-8 7.922-8h0.156a7.994 7.994 0 0 1 7.998 8c0 4.422-3.578 8-7.998 8zM312.49 144.022c-4.414 0-8.078-3.578-8.078-8 0-4.422 3.5-8 7.922-8h0.156a7.994 7.994 0 0 1 7.998 8c0 4.422-3.578 8-7.998 8z" fill="" /><path d="M583.996 352.01c-4.422 0-8-3.578-8-8V79.23c-15.654-3.204-27.996-15.546-31.184-31.202H255.21c-3.188 15.656-15.544 27.998-31.194 31.202v264.78c0 4.422-3.578 8-7.998 8-4.422 0-8-3.578-8-8V72.028c0-4.422 3.578-8 8-8 13.232 0 23.998-10.766 23.998-23.998 0-4.422 3.578-8 8-8h303.98c4.422 0 8 3.578 8 8 0 13.232 10.766 23.998 23.998 23.998 4.422 0 8 3.578 8 8v271.982a7.992 7.992 0 0 1-7.998 8z" fill="" /><path d="M615.994 352.01a7.994 7.994 0 0 1-7.998-8V16.03H192.02v327.98c0 4.422-3.578 8-7.998 8-4.422 0-8-3.578-8-8V8.032c0-4.422 3.578-8 8-8h431.972c4.422 0 8 3.578 8 8v335.978c0 4.422-3.578 8-8 8z" fill="" /><path d="M488.002 320.012c-4.422 0-8-3.578-8-8V120.024c0-4.42 3.578-8 8-8s8 3.578 8 8v191.988c0 4.422-3.578 8-8 8zM440.006 304.012h-79.996c-4.422 0-8-3.578-8-8 0-4.422 3.578-8 8-8h79.996a7.994 7.994 0 0 1 7.998 8c0 4.422-3.578 8-7.998 8zM416.006 256.016h-31.998c-17.646 0-31.998-14.358-31.998-31.998s14.352-31.998 31.998-31.998h31.998c17.648 0 31.998 14.358 31.998 31.998s-14.35 31.998-31.998 31.998z m-31.998-47.998c-8.818 0-15.998 7.17-15.998 16s7.18 16 15.998 16h31.998c8.82 0 16-7.17 16-16s-7.18-16-16-16h-31.998zM416.006 176.02h-31.998c-17.646 0-31.998-14.358-31.998-31.998s14.352-31.998 31.998-31.998h31.998c17.648 0 31.998 14.358 31.998 31.998s-14.35 31.998-31.998 31.998z m-31.998-47.996c-8.818 0-15.998 7.172-15.998 16s7.18 16 15.998 16h31.998c8.82 0 16-7.172 16-16s-7.18-16-16-16h-31.998z" fill="" /><path d="M376.01 320.012a7.976 7.976 0 0 1-5.656-2.344l-16-16a8 8 0 1 1 11.312-11.312l15.998 16a8 8 0 0 1-5.654 13.656zM440.006 320.012c-4.422 0-8-3.578-8-8v-31.998c0-4.42 3.578-8 8-8a7.994 7.994 0 0 1 7.998 8v31.998c0 4.422-3.578 8-7.998 8zM735.52 352.01c-0.688 0-1.376-0.094-2.062-0.266a7.994 7.994 0 0 1-5.656-9.812l43.714-163.146c-6.984-3.454-12.794-8.89-16.78-15.78-3.984-6.906-5.782-14.656-5.282-22.436l-98.682-26.436a7.994 7.994 0 0 1-5.656-9.812c1.124-4.25 5.562-6.704 9.782-5.656l105.65 28.31c2.062 0.562 3.81 1.89 4.874 3.734s1.344 4.032 0.782 6.078c-1.656 6.202-0.812 12.67 2.39 18.216s8.376 9.5 14.578 11.156a7.986 7.986 0 0 1 5.658 9.812l-45.592 170.114a8.002 8.002 0 0 1-7.718 5.924z" fill="" /><path d="M768.672 352.01c-0.688 0-1.376-0.094-2.062-0.266a7.984 7.984 0 0 1-5.654-9.796L818.78 126.024l-168.006-45.012a7.992 7.992 0 0 1-5.656-9.812c1.124-4.25 5.562-6.704 9.782-5.656l175.738 47.09a7.982 7.982 0 0 1 5.656 9.796l-59.902 223.642c-0.938 3.578-4.188 5.938-7.72 5.938zM903.976 512c-4.422 0-8-3.578-8-8 0-39.7-32.292-71.996-71.994-71.996-4.422 0-8-3.578-8-8 0-4.422 3.578-8 8-8 48.528 0 87.994 39.482 87.994 87.994a7.996 7.996 0 0 1-8 8.002z" fill="" /><path d="M823.982 1023.968H120.026c-4.422 0-8-3.578-8-8s3.578-8 8-8h703.958c39.702 0 71.994-32.292 71.994-71.994 0-4.422 3.578-8 8-8s8 3.578 8 8c-0.002 48.512-39.468 87.994-87.996 87.994z" fill="" /><path d="M903.976 441.348c-4.422 0-8-3.578-8-8v-25.342c0-39.7-32.292-71.996-71.994-71.996-4.422 0-8-3.578-8-8 0-4.422 3.578-8 8-8 48.528 0 87.994 39.482 87.994 87.994v25.342a7.996 7.996 0 0 1-8 8.002z" fill="" /><path d="M120.026 432.004c-30.874 0-55.998-25.124-55.998-55.998 0-4.42 3.578-8 8-8s8 3.578 8 8c0 22.062 17.944 39.998 39.998 39.998a7.994 7.994 0 0 1 7.998 8c0 4.422-3.578 8-7.998 8z" fill="" /><path d="M120.026 1023.968c-30.874 0-55.998-25.124-55.998-55.996 0-4.422 3.578-8 8-8s8 3.578 8 8c0 22.06 17.944 39.996 39.998 39.996 4.42 0 7.998 3.578 7.998 8s-3.578 8-7.998 8z" fill="" /><path d="M72.028 384.008c-4.422 0-8-3.578-8-8 0-30.874 25.124-55.996 55.998-55.996a7.994 7.994 0 0 1 7.998 8c0 4.42-3.578 8-7.998 8-22.054 0-39.998 17.936-39.998 39.998a7.994 7.994 0 0 1-8 7.998z" fill="" /><path d="M823.982 432.004H120.026c-4.422 0-8-3.578-8-8 0-4.422 3.578-8 8-8h703.958a7.994 7.994 0 0 1 7.998 8 7.998 7.998 0 0 1-8 8z" fill="" /><path d="M807.982 384.008H136.024c-4.422 0-8-3.578-8-8 0-4.42 3.578-8 8-8h671.958c4.422 0 8 3.578 8 8 0 4.422-3.578 8-8 8z" fill="" /><path d="M72.028 975.972c-4.422 0-8-3.578-8-8V376.008c0-4.42 3.578-8 8-8s8 3.578 8 8v591.964c0 4.422-3.578 8-8 8z" fill="" /><path d="M823.982 336.01h-16a7.994 7.994 0 0 1-7.998-8c0-4.422 3.578-8 7.998-8h16a7.994 7.994 0 0 1 7.998 8c0 4.422-3.578 8-7.998 8z" fill="" /><path d="M152.024 336.01H120.026c-4.422 0-8-3.578-8-8 0-4.422 3.578-8 8-8h31.998a7.994 7.994 0 0 1 7.998 8c0 4.422-3.578 8-7.998 8z" fill="" /><path d="M152.024 480.002h-16c-4.422 0-8-3.578-8-8 0-4.42 3.578-8 8-8h16a7.994 7.994 0 0 1 7.998 8c0 4.422-3.578 8-7.998 8zM776.734 480.002h-31.216a7.984 7.984 0 0 1-7.998-8c0-4.42 3.56-8 7.998-8h31.216c4.438 0 8 3.578 8 8 0 4.422-3.562 8-8 8z m-62.464 0h-31.232a7.994 7.994 0 0 1-7.998-8c0-4.42 3.576-8 7.998-8h31.232c4.422 0 8 3.578 8 8 0 4.422-3.578 8-8 8z m-62.466 0h-31.248c-4.406 0-8-3.578-8-8 0-4.42 3.594-8 8-8h31.248c4.406 0 8 3.578 8 8 0 4.422-3.594 8-8 8z m-62.48 0h-31.232c-4.422 0-8-3.578-8-8 0-4.42 3.578-8 8-8h31.232c4.422 0 8 3.578 8 8 0 4.422-3.578 8-8 8z m-62.472 0H495.62c-4.422 0-8-3.578-8-8 0-4.42 3.578-8 8-8h31.232a7.984 7.984 0 0 1 7.992 8c0 4.422-3.562 8-7.992 8z m-62.474 0h-31.232c-4.422 0-8-3.578-8-8 0-4.42 3.578-8 8-8h31.232c4.422 0 8 3.578 8 8 0 4.422-3.578 8-8 8z m-62.472 0h-31.232c-4.422 0-8-3.578-8-8 0-4.42 3.578-8 8-8h31.232c4.422 0 8 3.578 8 8 0 4.422-3.578 8-8 8z m-62.472 0h-31.232c-4.422 0-8-3.578-8-8 0-4.42 3.578-8 8-8h31.232c4.422 0 8 3.578 8 8 0 4.422-3.578 8-8 8z m-62.474 0h-31.232c-4.422 0-8-3.578-8-8 0-4.42 3.578-8 8-8h31.232a7.994 7.994 0 0 1 7.998 8c0 4.422-3.576 8-7.998 8z m-62.472 0H183.256c-4.422 0-8-3.578-8-8 0-4.42 3.578-8 8-8h31.232a7.994 7.994 0 0 1 7.998 8c0 4.422-3.576 8-7.998 8zM823.982 480.002h-16a7.994 7.994 0 0 1-7.998-8c0-4.42 3.578-8 7.998-8h16a7.994 7.994 0 0 1 7.998 8c0 4.422-3.578 8-7.998 8z" fill="" /><path d="M152.024 975.988h-16c-4.422 0-8-3.578-8-8s3.578-8 8-8h16c4.42 0 7.998 3.578 7.998 8s-3.578 8-7.998 8zM776.734 975.988h-31.216c-4.438 0-7.998-3.578-7.998-8s3.56-8 7.998-8h31.216c4.438 0 8 3.578 8 8s-3.562 8-8 8z m-62.464 0h-31.232c-4.422 0-7.998-3.578-7.998-8s3.576-8 7.998-8h31.232c4.422 0 8 3.578 8 8s-3.578 8-8 8z m-62.466 0h-31.248c-4.406 0-8-3.578-8-8s3.594-8 8-8h31.248c4.406 0 8 3.578 8 8s-3.594 8-8 8z m-62.48 0h-31.232c-4.422 0-8-3.578-8-8s3.578-8 8-8h31.232c4.422 0 8 3.578 8 8s-3.578 8-8 8z m-62.472 0H495.62c-4.422 0-8-3.578-8-8s3.578-8 8-8h31.232c4.43 0 7.992 3.578 7.992 8s-3.562 8-7.992 8z m-62.474 0h-31.232c-4.422 0-8-3.578-8-8s3.578-8 8-8h31.232c4.422 0 8 3.578 8 8s-3.578 8-8 8z m-62.472 0h-31.232c-4.422 0-8-3.578-8-8s3.578-8 8-8h31.232c4.422 0 8 3.578 8 8s-3.578 8-8 8z m-62.472 0h-31.232c-4.422 0-8-3.578-8-8s3.578-8 8-8h31.232c4.422 0 8 3.578 8 8s-3.578 8-8 8z m-62.474 0h-31.232c-4.422 0-8-3.578-8-8s3.578-8 8-8h31.232c4.422 0 7.998 3.578 7.998 8s-3.576 8-7.998 8z m-62.472 0H183.256c-4.422 0-8-3.578-8-8s3.578-8 8-8h31.232c4.422 0 7.998 3.578 7.998 8s-3.576 8-7.998 8zM823.982 975.988h-16c-4.42 0-7.998-3.578-7.998-8s3.578-8 7.998-8h16c4.42 0 7.998 3.578 7.998 8s-3.578 8-7.998 8z" fill="" /><path d="M903.976 591.996c-4.422 0-8-3.578-8-8V504c0-4.42 3.578-8 8-8s8 3.578 8 8v79.996c0 4.422-3.578 8-8 8z" fill="" /><path d="M903.976 943.972c-4.422 0-8-3.578-8-7.998V839.98c0-4.422 3.578-8 8-8s8 3.578 8 8v95.994a7.994 7.994 0 0 1-8 7.998z" fill="" /></svg>