<?xml version="1.0" ?><!-- Uploaded to: SVG Repo, www.svgrepo.com, Generator: SVG Repo Mixer Tools -->
<svg width="800px" height="800px" viewBox="0 0 48 48" id="Layer_1" version="1.1" xml:space="preserve" xmlns="http://www.w3.org/2000/svg" xmlns:xlink="http://www.w3.org/1999/xlink"><style type="text/css">
	.st0{fill:#010101;}
</style><path class="st0" d="M40.965,6.5H7C6.724,6.5,6.5,6.724,6.5,7v15.952c0,0.276,0.224,0.5,0.5,0.5h5.492  c-1.465,0.903-2.452,2.509-2.452,4.353v0.435c0,0.276,0.224,0.5,0.5,0.5h9.252c0.276,0,0.5-0.224,0.5-0.5v-0.435  c0-1.844-0.987-3.45-2.452-4.353h23.124c0.276,0,0.5-0.224,0.5-0.5V7C41.465,6.724,41.241,6.5,40.965,6.5z M15.167,22.678  c-1.567,0-2.843-1.275-2.843-2.843s1.275-2.843,2.843-2.843c1.568,0,2.843,1.275,2.843,2.843S16.734,22.678,15.167,22.678z   M19.292,27.74h-8.251c0.035-2.246,1.872-4.062,4.125-4.062C17.42,23.678,19.258,25.494,19.292,27.74z M40.465,22.452h-22.5  c0.643-0.687,1.044-1.603,1.044-2.616c0-2.119-1.724-3.843-3.843-3.843s-3.843,1.724-3.843,3.843c0,1.013,0.402,1.929,1.044,2.616  H7.5V7.5h32.965V22.452z"/><path class="st0" d="M10.128,40.686V41c0,0.276,0.224,0.5,0.5,0.5h6.686H24h6.686h6.686c0.276,0,0.5-0.224,0.5-0.5v-0.314  c0-1.497-0.869-2.783-2.122-3.417c0.721-0.531,1.195-1.379,1.195-2.341c0-1.607-1.308-2.916-2.916-2.916s-2.916,1.308-2.916,2.916  c0,0.962,0.474,1.81,1.195,2.341c-0.686,0.347-1.248,0.89-1.622,1.559c-0.374-0.67-0.936-1.212-1.622-1.559  c0.721-0.531,1.195-1.379,1.195-2.341c0-1.607-1.308-2.916-2.916-2.916s-2.916,1.308-2.916,2.916c0,0.962,0.474,1.81,1.195,2.341  c-0.686,0.347-1.248,0.89-1.622,1.559c-0.374-0.67-0.936-1.212-1.622-1.559c0.721-0.531,1.195-1.379,1.195-2.341  c0-1.607-1.308-2.916-2.916-2.916s-2.916,1.308-2.916,2.916c0,0.962,0.474,1.81,1.195,2.341c-0.686,0.347-1.248,0.89-1.622,1.559  c-0.374-0.67-0.936-1.212-1.622-1.559c0.721-0.531,1.195-1.379,1.195-2.341c0-1.607-1.308-2.916-2.916-2.916  s-2.916,1.308-2.916,2.916c0,0.962,0.474,1.81,1.195,2.341C10.998,37.902,10.128,39.188,10.128,40.686z M32.113,34.927  c0-1.056,0.859-1.916,1.916-1.916s1.916,0.859,1.916,1.916s-0.859,1.916-1.916,1.916S32.113,35.983,32.113,34.927z M34.029,37.843  c1.505,0,2.741,1.176,2.837,2.657h-5.674C31.288,39.019,32.523,37.843,34.029,37.843z M25.427,34.927  c0-1.056,0.859-1.916,1.916-1.916s1.916,0.859,1.916,1.916s-0.859,1.916-1.916,1.916S25.427,35.983,25.427,34.927z M27.343,37.843  c1.505,0,2.741,1.176,2.837,2.657h-5.674C24.602,39.019,25.837,37.843,27.343,37.843z M18.742,34.927  c0-1.056,0.859-1.916,1.916-1.916s1.916,0.859,1.916,1.916s-0.859,1.916-1.916,1.916S18.742,35.983,18.742,34.927z M20.657,37.843  c1.505,0,2.741,1.176,2.837,2.657H17.82C17.916,39.019,19.152,37.843,20.657,37.843z M12.056,34.927  c0-1.056,0.859-1.916,1.916-1.916s1.916,0.859,1.916,1.916s-0.859,1.916-1.916,1.916S12.056,35.983,12.056,34.927z M13.971,37.843  c1.505,0,2.741,1.176,2.837,2.657h-5.674C11.23,39.019,12.466,37.843,13.971,37.843z"/><path class="st0" d="M12.007,11.566h24c0.276,0,0.5-0.224,0.5-0.5s-0.224-0.5-0.5-0.5h-24c-0.276,0-0.5,0.224-0.5,0.5  S11.73,11.566,12.007,11.566z"/><path class="st0" d="M36.007,14.482H23.08c-0.276,0-0.5,0.224-0.5,0.5s0.224,0.5,0.5,0.5h12.927c0.276,0,0.5-0.224,0.5-0.5  S36.283,14.482,36.007,14.482z"/><path class="st0" d="M36.007,18.399H23.08c-0.276,0-0.5,0.224-0.5,0.5s0.224,0.5,0.5,0.5h12.927c0.276,0,0.5-0.224,0.5-0.5  S36.283,18.399,36.007,18.399z"/></svg>